CATALOG 0123456789012
PERFORMER "TEST_ARTIST"
TITLE "TEST_CD"
FILE "D:\Code\cd-changer\test-suite\01_00.wav" WAVE
  TRACK 01 AUDIO
    INDEX 00 00:00:00
FILE "D:\Code\cd-changer\test-suite\01_01.wav" WAVE
    INDEX 01 00:00:00
FILE "D:\Code\cd-changer\test-suite\01_02.wav" WAVE
    INDEX 02 00:00:00
FILE "D:\Code\cd-changer\test-suite\02_00.wav" WAVE
  TRACK 02 AUDIO
    INDEX 00 00:00:00
FILE "D:\Code\cd-changer\test-suite\02_01.wav" WAVE
    INDEX 01 00:00:00
FILE "D:\Code\cd-changer\test-suite\03_00.wav" WAVE
  TRACK 03 AUDIO
    INDEX 00 00:00:00
FILE "D:\Code\cd-changer\test-suite\03_01.wav" WAVE
    INDEX 01 00:00:00
FILE "D:\Code\cd-changer\test-suite\04_00.wav" WAVE
  TRACK 04 AUDIO
    INDEX 00 00:00:00
FILE "D:\Code\cd-changer\test-suite\04_01.wav" WAVE
    INDEX 01 00:00:00
FILE "D:\Code\cd-changer\test-suite\05_00.wav" WAVE
  TRACK 05 AUDIO
    INDEX 00 00:00:00
FILE "D:\Code\cd-changer\test-suite\05_01.wav" WAVE
    INDEX 01 00:00:00
FILE "D:\Code\cd-changer\test-suite\06_00.wav" WAVE
  TRACK 06 AUDIO
    INDEX 00 00:00:00
FILE "D:\Code\cd-changer\test-suite\06_01.wav" WAVE
    INDEX 01 00:00:00
FILE "D:\Code\cd-changer\test-suite\07_00.wav" WAVE
  TRACK 07 AUDIO
    INDEX 00 00:00:00
FILE "D:\Code\cd-changer\test-suite\07_01.wav" WAVE
    INDEX 01 00:00:00
FILE "D:\Code\cd-changer\test-suite\08_00.wav" WAVE
  TRACK 08 AUDIO
    INDEX 00 00:00:00
FILE "D:\Code\cd-changer\test-suite\08_01.wav" WAVE
    INDEX 01 00:00:00
FILE "D:\Code\cd-changer\test-suite\09_01.wav" WAVE
  TRACK 09 AUDIO
    PREGAP 00:02:00
    INDEX 01 00:00:00
FILE "D:\Code\cd-changer\test-suite\music\SpeakerSampler3\01 Track 01.mp3" WAVE
  TRACK 10 AUDIO
    PREGAP 00:02:00
    INDEX 01 00:00:00
FILE "D:\Code\cd-changer\test-suite\music\SpeakerSampler3\02 Track 02.mp3" WAVE
  TRACK 11 AUDIO
    PREGAP 00:02:00
    INDEX 01 00:00:00
FILE "D:\Code\cd-changer\test-suite\music\SpeakerSampler3\03 Track 03.mp3" WAVE
  TRACK 12 AUDIO
    PREGAP 00:02:00
    INDEX 01 00:00:00
FILE "D:\Code\cd-changer\test-suite\music\SpeakerSampler3\04 Track 04.mp3" WAVE
  TRACK 13 AUDIO
    PREGAP 00:02:00
    INDEX 01 00:00:00
FILE "D:\Code\cd-changer\test-suite\music\SpeakerSampler3\05 Track 05.mp3" WAVE
  TRACK 14 AUDIO
    PREGAP 00:02:00
    INDEX 01 00:00:00
FILE "D:\Code\cd-changer\test-suite\music\SpeakerSampler3\06 Track 06.mp3" WAVE
  TRACK 15 AUDIO
    PREGAP 00:02:00
    INDEX 01 00:00:00
FILE "D:\Code\cd-changer\test-suite\music\SpeakerSampler3\07 Track 07.mp3" WAVE
  TRACK 16 AUDIO
    PREGAP 00:02:00
    INDEX 01 00:00:00
FILE "D:\Code\cd-changer\test-suite\music\SpeakerSampler3\08 Track 08.mp3" WAVE
  TRACK 17 AUDIO
    PREGAP 00:02:00
    INDEX 01 00:00:00
FILE "D:\Code\cd-changer\test-suite\music\SpeakerSampler3\09 Track 09.mp3" WAVE
  TRACK 18 AUDIO
    PREGAP 00:02:00
    INDEX 01 00:00:00
FILE "D:\Code\cd-changer\test-suite\music\SpeakerSampler3\10 Track 10.mp3" WAVE
  TRACK 19 AUDIO
    PREGAP 00:02:00
    INDEX 01 00:00:00
FILE "D:\Code\cd-changer\test-suite\music\SpeakerSampler3\11 Track 11.mp3" WAVE
  TRACK 20 AUDIO
    PREGAP 00:02:00
    INDEX 01 00:00:00
FILE "D:\Code\cd-changer\test-suite\music\SpeakerSampler3\12 Track 12.mp3" WAVE
  TRACK 21 AUDIO
    PREGAP 00:02:00
    INDEX 01 00:00:00
FILE "D:\Code\cd-changer\test-suite\music\SpeakerSampler3\13 Track 13.mp3" WAVE
  TRACK 22 AUDIO
    PREGAP 00:02:00
    INDEX 01 00:00:00
FILE "D:\Music\_Collection\!Music\!Wst\Daft Punk\Random Access Memories\11 Fragments Of Time.mp3" WAVE
  TRACK 23 AUDIO
    PREGAP 00:02:00
    INDEX 01 00:00:00
FILE "D:\Music\Traktor_Rec\kalahanamix.wav" WAVE
  TRACK 24 AUDIO
    PREGAP 00:02:00
    INDEX 01 00:00:00
FILE "D:\Music\_Collection\!Music\!JAP\Ado - ....\1-01. ....mp3" WAVE
  TRACK 25 AUDIO
    PREGAP 00:02:00
    INDEX 01 00:00:00
